<svg height="512pt" viewBox="0 0 512 512" width="512pt" xmlns="http://www.w3.org/2000/svg"><path d="m497 0h-482c-8.285156 0-15 6.714844-15 15v48.199219c0 8.285156 6.714844 15 15 15h226v34.269531h-33.199219c-38.578125 0-70.792969 27.707031-77.824219 64.265625h-10.542968c-30.417969 0-55.167969 24.746094-55.167969 55.167969 0 9.980468 2.679687 19.339844 7.332031 27.425781-12.695312 3.746094-39.464844 18.925781-39.464844 52.921875 0 34.148438 26.875 49.175781 39.464844 52.890625-4.652344 8.085937-7.332031 17.449219-7.332031 27.425781 0 30.421875 24.75 55.167969 55.167969 55.167969h10.542968c7.03125 36.554687 39.246094 64.265625 77.824219 64.265625h96.398438c38.578125 0 70.792969-27.710938 77.824219-64.265625h10.542968c30.417969 0 55.167969-24.75 55.167969-55.167969 0-9.992187-2.683594-19.359375-7.347656-27.453125 22.800781-6.773437 39.480469-27.910156 39.480469-52.878906 0-24.972656-16.679688-46.105469-39.480469-52.882813 4.664062-8.089843 7.347656-17.460937 7.347656-27.453124 0-30.417969-24.75-55.164063-55.167969-55.164063h-10.542968c-7.03125-36.558594-39.246094-64.269531-77.824219-64.269531h-33.199219v-34.265625h90.257812l43.335938 54.167969c14.523438 18.160156 41.292969 19.226562 57.355469 3.160156 12.875-12.871094 14.890625-33.210938 4.789062-48.363282l-5.976562-8.964843h36.238281c8.285156 0 15-6.714844 15-15v-48.199219c0-8.285156-6.714844-15-15-15zm-434.867188 312.21875c0-13.894531 11.242188-25.152344 25.148438-25.152344h175.882812c-3.886718 7.550782-6.097656 16.105469-6.097656 25.167969s2.210938 17.613281 6.097656 25.167969h-175.878906c-13.765625-.003906-25.152344-11.105469-25.152344-25.183594zm275.265626.015625c0 13.875-11.289063 25.164063-25.164063 25.164063-13.878906 0-25.167969-11.289063-25.167969-25.164063 0-13.878906 11.289063-25.167969 25.167969-25.167969 13.875 0 25.164063 11.289063 25.164063 25.167969zm-33.199219 169.765625h-96.398438c-21.9375 0-40.574219-14.410156-46.933593-34.265625h190.265624c-6.359374 19.855469-24.996093 34.265625-46.933593 34.265625zm88.367187-64.265625h-273.132812c-13.878906 0-25.167969-11.292969-25.167969-25.167969 0-13.878906 11.289063-25.167968 25.167969-25.167968h273.132812c13.875 0 25.167969 11.289062 25.167969 25.167968 0 13.875-11.292969 25.167969-25.167969 25.167969zm57.300782-105.5c0 13.875-11.289063 25.164063-25.167969 25.164063h-63.398438c3.886719-7.550782 6.097657-16.101563 6.097657-25.164063s-2.210938-17.617187-6.097657-25.167969h63.398438c13.878906 0 25.167969 11.289063 25.167969 25.167969zm-32.132813-80.335937c0 13.878906-11.292969 25.167968-25.167969 25.167968h-273.132812c-13.878906 0-25.167969-11.289062-25.167969-25.167968 0-13.875 11.289063-25.164063 25.167969-25.164063h273.132812c13.875 0 25.167969 11.289063 25.167969 25.164063zm-66.601563-55.164063h-190.265624c6.359374-19.855469 24.996093-34.269531 46.933593-34.269531h96.398438c21.9375.003906 40.574219 14.414062 46.933593 34.269531zm130.867188-128.535156h-49.265625c-5.535156 0-10.617187 3.046875-13.226563 7.921875-2.609374 4.878906-2.324218 10.796875.746094 15.398437l21.523438 32.285157c2.191406 3.292968 1.753906 7.714843-1.054688 10.523437-2.730468 2.726563-8.832031 4.140625-12.707031-.699219l-47.835937-59.800781c-2.847657-3.558594-7.15625-5.628906-11.710938-5.628906h-338.46875v-18.199219h452zm0 0"/></svg>