<?xml version="1.0" encoding="iso-8859-1"?>
<!-- Generator: Adobe Illustrator 19.0.0, SVG Export Plug-In . SVG Version: 6.00 Build 0)  -->
<svg version="1.1" id="Capa_1" xmlns="http://www.w3.org/2000/svg" xmlns:xlink="http://www.w3.org/1999/xlink" x="0px" y="0px"
	 viewBox="0 0 512.001 512.001" style="enable-background:new 0 0 512.001 512.001;" xml:space="preserve">
<g>
	<g>
		<path d="M256,305.351c-8.005,0-15.675,7.039-15.305,15.305c0.371,8.292,6.725,15.305,15.305,15.305
			c8.005,0,15.675-7.039,15.305-15.305C270.933,312.363,264.579,305.351,256,305.351z"/>
	</g>
</g>
<g>
	<g>
		<path d="M256,177.601c-25.833,0-46.852,21.018-46.852,46.852c0,8.452,6.852,15.305,15.305,15.305
			c8.452,0,15.305-6.852,15.305-15.305c0-8.955,7.287-16.242,16.242-16.242s16.242,7.287,16.242,16.242s-7.287,16.242-16.242,16.242
			c-8.452,0-15.305,6.852-15.305,15.305v22.68c0,8.452,6.852,15.305,15.305,15.305c8.452,0,15.305-6.852,15.305-15.305v-9.943
			c18.343-6.355,31.547-23.807,31.547-44.284C302.851,198.619,281.834,177.601,256,177.601z"/>
	</g>
</g>
<g>
	<g>
		<path d="M461.892,324.995c-9.993-5.77-21.633-7.302-32.777-4.315c-6.011,1.611-11.482,4.441-16.159,8.266l-25.33-14.624
			c7.736-17.628,12.041-37.089,12.041-57.54c0-20.934-4.504-40.834-12.587-58.787l25.877-14.94
			c4.677,3.825,10.148,6.655,16.159,8.267c3.721,0.998,7.498,1.491,11.25,1.491c7.484,0,14.872-1.963,21.527-5.806
			c9.992-5.768,17.139-15.082,20.126-26.227s1.454-22.786-4.315-32.777c-5.768-9.992-15.082-17.139-26.227-20.126
			c-11.146-2.987-22.787-1.455-32.777,4.315c-9.992,5.768-17.139,15.082-20.126,26.227c-1.611,6.012-1.895,12.165-0.92,18.128
			l-26.048,15.038c-23.329-31.571-59.259-53.288-100.298-57.655V83.58c16.284-6.192,27.89-21.955,27.89-40.385
			C299.194,19.377,279.818,0,256,0s-43.195,19.377-43.195,43.195c0,18.43,11.606,34.193,27.89,40.385v30.351
			c-41.04,4.366-76.97,26.083-100.298,57.655l-26.048-15.038c0.974-5.963,0.69-12.116-0.92-18.128
			c-2.986-11.145-10.134-20.459-20.126-26.227c-9.993-5.77-21.632-7.302-32.777-4.315c-11.145,2.986-20.459,10.134-26.227,20.126
			c-5.769,9.992-7.301,21.633-4.315,32.777s10.134,20.459,20.126,26.227c6.655,3.844,14.042,5.806,21.527,5.806
			c3.753,0,7.529-0.493,11.25-1.491c6.011-1.611,11.482-4.441,16.159-8.267l25.877,14.94c-8.084,17.954-12.586,37.854-12.586,58.787
			c0,20.451,4.305,39.912,12.041,57.54l-25.33,14.624c-4.677-3.825-10.148-6.655-16.159-8.267
			c-11.145-2.987-22.786-1.455-32.777,4.315c-9.992,5.768-17.139,15.082-20.126,26.227c-2.986,11.145-1.454,22.786,4.315,32.777
			c5.768,9.992,15.082,17.139,26.227,20.126c3.721,0.998,7.498,1.491,11.25,1.491c7.484,0,14.872-1.963,21.528-5.806
			c9.992-5.768,17.139-15.082,20.126-26.227c1.611-6.012,1.895-12.165,0.92-18.128l25.246-14.576
			c23.303,32.165,59.587,54.336,101.1,58.752v28.789c-16.284,6.192-27.89,21.955-27.89,40.385c0,23.818,19.377,43.195,43.195,43.195
			s43.195-19.377,43.195-43.195c0-18.43-11.606-34.193-27.89-40.385v-28.789c41.514-4.417,77.799-26.587,101.1-58.752l25.247,14.576
			c-0.974,5.963-0.69,12.116,0.92,18.128c2.986,11.145,10.134,20.459,20.126,26.227c6.655,3.844,14.042,5.806,21.527,5.806
			c3.753,0,7.529-0.493,11.25-1.491c11.145-2.986,20.459-10.134,26.227-20.126c5.769-9.992,7.301-21.633,4.315-32.777
			S471.883,330.764,461.892,324.995z M428.138,146.34c0.87-3.247,2.953-5.961,5.864-7.641c1.94-1.12,4.092-1.692,6.272-1.692
			c1.093,0,2.194,0.144,3.278,0.435c3.247,0.87,5.961,2.953,7.641,5.864c1.68,2.911,2.127,6.303,1.257,9.55
			c-0.87,3.247-2.953,5.961-5.864,7.641c-2.912,1.681-6.305,2.129-9.55,1.257c-3.247-0.87-5.961-2.953-7.641-5.864
			C427.714,152.979,427.268,149.586,428.138,146.34z M82.604,155.89c-1.68,2.912-4.396,4.994-7.641,5.864
			c-3.247,0.871-6.64,0.424-9.55-1.257c-2.912-1.68-4.994-4.396-5.864-7.641c-0.87-3.248-0.423-6.639,1.257-9.55
			c1.68-2.911,4.395-4.994,7.641-5.864c1.085-0.291,2.185-0.435,3.278-0.435c2.18,0,4.332,0.572,6.272,1.692
			c2.912,1.68,4.994,4.396,5.864,7.641C84.732,149.586,84.285,152.979,82.604,155.89z M83.861,365.66
			c-0.87,3.247-2.953,5.961-5.864,7.641c-2.913,1.681-6.303,2.128-9.55,1.257c-3.247-0.87-5.961-2.953-7.641-5.864
			c-1.68-2.911-2.127-6.303-1.257-9.55c0.87-3.247,2.953-5.961,5.864-7.641c1.94-1.12,4.092-1.692,6.272-1.692
			c1.093,0,2.194,0.144,3.278,0.435c3.247,0.87,5.961,2.953,7.641,5.864C84.285,359.021,84.732,362.413,83.861,365.66z M256,30.609
			c6.94,0,12.586,5.645,12.586,12.586S262.94,55.78,256,55.78c-6.94,0-12.586-5.645-12.586-12.586S249.06,30.609,256,30.609z
			 M256,481.391c-6.94,0-12.586-5.645-12.586-12.586S249.059,456.22,256,456.22s12.586,5.645,12.586,12.586
			S262.94,481.391,256,481.391z M256,369.838c-62.34,0-113.057-50.718-113.057-113.057c0-62.341,50.717-113.058,113.057-113.058
			s113.057,50.717,113.057,113.058C369.057,319.121,318.339,369.838,256,369.838z M451.194,368.695
			c-1.68,2.912-4.396,4.994-7.641,5.864c-3.246,0.871-6.637,0.424-9.55-1.257c-2.912-1.68-4.994-4.396-5.864-7.641
			c-0.87-3.248-0.423-6.639,1.257-9.55c1.68-2.911,4.396-4.994,7.641-5.864c1.085-0.291,2.184-0.435,3.277-0.435
			c2.181,0,4.334,0.572,6.273,1.692c2.912,1.68,4.994,4.396,5.864,7.641C453.321,362.392,452.874,365.784,451.194,368.695z"/>
	</g>
</g>
<g>
</g>
<g>
</g>
<g>
</g>
<g>
</g>
<g>
</g>
<g>
</g>
<g>
</g>
<g>
</g>
<g>
</g>
<g>
</g>
<g>
</g>
<g>
</g>
<g>
</g>
<g>
</g>
<g>
</g>
</svg>
